<svg xmlns="http://www.w3.org/2000/svg" xmlns:xlink="http://www.w3.org/1999/xlink" viewBox="0,0,256,256" width="50px" height="50px" fill-rule="nonzero"><g fill="#1397f3" fill-rule="nonzero" stroke="none" stroke-width="1" stroke-linecap="butt" stroke-linejoin="miter" stroke-miterlimit="10" stroke-dasharray="" stroke-dashoffset="0" font-family="none" font-weight="none" font-size="none" text-anchor="none" style="mix-blend-mode: normal"><g transform="scale(5.12,5.12)"><path d="M36,3.99h-22c-5.514,0 -10,4.486 -10,10v22c0,5.514 4.486,10 10,10h22c5.514,0 10,-4.486 10,-10v-22c0,-5.514 -4.486,-10 -10,-10zM8.534,22.973c-0.542,-0.104 -0.898,-0.627 -0.795,-1.169c1.522,-7.999 8.545,-13.804 16.699,-13.804c0.01,0 0.019,0.005 0.029,0.006c0.046,-0.006 0.088,-0.026 0.136,-0.026c0.599,0 1.11,0.433 1.209,1.024l0.897,5.381l-0.946,8.517c-0.069,0.621 -0.594,1.09 -1.218,1.09c-0.599,0 -1.11,-0.433 -1.209,-1.024l-0.897,-5.381l0.385,-3.461c-5.016,0.74 -8.928,4.877 -9.347,9.955c-0.044,0.523 -0.481,0.919 -0.997,0.919c-0.027,0 -0.055,-0.001 -0.083,-0.003c-0.551,-0.045 -0.96,-0.528 -0.915,-1.079c0.504,-6.115 5.291,-11.088 11.381,-11.823c0.064,-0.007 0.122,0.011 0.183,0.015l0.229,-2.058c-6.69,0.518 -12.302,5.453 -13.572,12.126c-0.091,0.479 -0.511,0.813 -0.981,0.813c-0.062,-0.001 -0.125,-0.006 -0.188,-0.018zM31.618,35.839c-2.13,1.414 -4.613,2.161 -7.18,2.161c-4.172,0 -8.12,-2.025 -10.56,-5.416c-0.033,-0.046 -0.043,-0.1 -0.068,-0.15l-1.937,0.747c0.055,0.084 0.104,0.173 0.161,0.256c2.801,4.109 7.438,6.563 12.404,6.563c1.947,0 3.84,-0.367 5.628,-1.091c0.512,-0.208 1.094,0.04 1.302,0.551c0.208,0.512 -0.04,1.095 -0.551,1.302c-2.027,0.821 -4.173,1.238 -6.379,1.238c-5.628,0 -10.883,-2.78 -14.057,-7.437c-0.235,-0.345 -0.458,-0.699 -0.668,-1.062l-0.168,-0.305c-0.042,-0.051 -0.092,-0.092 -0.125,-0.151c-0.089,-0.157 -0.126,-0.327 -0.138,-0.497c-0.004,-0.034 0.004,-0.066 0.004,-0.1c0.001,-0.101 0.006,-0.199 0.032,-0.296c0.001,-0.004 0.004,-0.008 0.005,-0.012c0.071,-0.248 0.212,-0.477 0.435,-0.638l3.818,-3.029l7.846,-3.624c0.544,-0.198 1.151,0.026 1.436,0.53c0.297,0.525 0.152,1.19 -0.338,1.543l-3.788,3.614l-3.004,1.159c2.078,2.695 5.299,4.305 8.71,4.305c2.172,0 4.272,-0.632 6.074,-1.827c0.46,-0.306 1.081,-0.18 1.386,0.28c0.306,0.46 0.18,1.081 -0.28,1.386zM39.412,33.056c-0.181,0.335 -0.525,0.525 -0.881,0.525c-0.124,0 -0.249,-0.031 -0.37,-0.079c-0.05,-0.011 -0.101,-0.008 -0.15,-0.026l-4.895,-1.784l-6.634,-4.792c-0.483,-0.349 -0.627,-1.006 -0.334,-1.525c0.282,-0.498 0.882,-0.719 1.419,-0.523l4.803,1.406l2.573,1.977c0.321,-1.044 0.494,-2.129 0.494,-3.236c0,-3.915 -2.107,-7.565 -5.499,-9.528c-0.478,-0.277 -0.641,-0.889 -0.365,-1.367c0.277,-0.478 0.888,-0.641 1.367,-0.365c4.007,2.319 6.497,6.633 6.497,11.259c0,1.537 -0.266,3.04 -0.789,4.47c-0.007,0.02 -0.021,0.034 -0.03,0.053l1.651,1.269c0.763,-1.825 1.167,-3.799 1.167,-5.792c0,-4.16 -1.664,-8.028 -4.685,-10.89c-0.401,-0.38 -0.418,-1.013 -0.038,-1.414c0.381,-0.401 1.014,-0.417 1.414,-0.038c3.423,3.244 5.309,7.627 5.309,12.342c0.002,2.813 -0.699,5.599 -2.024,8.058z"></path></g></g></svg>